<svg width="98" height="40" xmlns="http://www.w3.org/2000/svg">
  <path
    d="M.336 12.101c0 2.116-.146 4.355-.146 6.435 0 3.881.337 8.016.968 11.806.402 2.414.82 5.307 2.903 6.87 3.658 2.744 8.804 2.42 13.161 2.42 3.123 0 6.571.808 9.677.29 4.44-.74 9.41-.774 13.934-.774 12.469 0 24.92.096 37.353.096 5.94 0 12.004.867 16.451-3.58 2.36-2.36 1.75-6.139 2.323-9 .488-2.442.491-5.473 0-7.935-.161-.806.16-1.709 0-2.516-.58-2.897-.292-6.008-.872-8.902-.452-2.265-2.383-3.264-3.967-4.451C87.214-.821 83.315 1.166 77.799.247c-1.305-.218-2.857-.186-4.16 0-2.853.407-5.857-.118-8.71.29-4.71.673-9.762-.447-14.419.484-2.435.487-7.926.308-10.353-.097-2.325-.387-4.829.333-7.162 0C29.763.462 26.315.73 23.028.73c-2.233 0-4.659-.277-6.87 0C9.19 1.6 2.777-.98.965 8.085.675 9.533.336 10.222.336 12.1Z"
    fill="#222244"
  />
</svg>
