<svg width="196" height="81" xmlns="http://www.w3.org/2000/svg">
  <path
    d="M25.675 78.4c1.82.056 3.412-.355 5.17-.2 5.782.516 11.647.467 17.379.656 12.5.418 25.192.652 37.676 1.358 4.177.236 8.356-.69 12.522-.454 13.297.753 26.618-.6 39.879-.158 5.591.187 11.78-.644 17.32.115 9.353 1.283 21.833 1.067 30.408-3.496 10.662-5.676 8.722-17.249 9.056-27.222.183-5.53-.299-11.081.014-16.581.277-4.895.714-11.497-1.228-16.261-.575-1.415-2.19-3.297-3.21-4.388-2.055-2.195-3.589-4.79-5.686-7.031-1.918-2.048-7.876-3.387-10.611-3.761-7.874-1.081-15.705.17-23.56-.53-4.383-.39-8.953 1.523-13.342 1.273-7.12-.402-14.263.989-21.402.876-16.663-.262-33.447.911-50.061.357-8.32-.277-16.792-.174-25.058-.911-3.976-.353-8.176.548-12.16.415-7.593-.253-14.742.227-21.449 3.797-1.68.893-1.654 2.06-2.725 3.395C-.636 16.17.677 25.299.238 33.079c-.193 3.39.902 7.094.597 10.5-.762 8.583-.62 24.307 6.758 30.234 5.358 4.304 11.671 4.392 18.082 4.587Z"
    fill="#EAE3CD"
  />
</svg>
