<svg width="195" height="81" xmlns="http://www.w3.org/2000/svg">
  <path
    d="M.482 24.107c0 4.231-.292 8.71-.292 12.869 0 7.763.673 16.033 1.936 23.612.804 4.829 1.64 10.615 5.806 13.74 7.316 5.488 17.608 4.84 26.322 4.84 6.245 0 13.142 1.616 19.353.58 8.88-1.48 18.822-1.548 27.87-1.548 24.937 0 49.839.193 74.705.193 11.881 0 24.007 1.734 32.902-7.161 4.718-4.718 3.5-12.277 4.645-17.998.978-4.886.983-10.948 0-15.87-.322-1.612.322-3.42 0-5.033-1.159-5.794-.584-12.016-1.743-17.805-.904-4.529-4.767-6.527-7.935-8.902-9.814-7.362-17.611-3.388-28.643-5.225-2.61-.436-5.715-.373-8.322 0-5.705.813-11.713-.236-17.419.58-9.42 1.346-19.522-.895-28.837.968-4.871.974-15.852.615-20.707-.195-4.649-.773-9.656.667-14.323 0-6.465-.923-13.36-.385-19.935-.385-4.466 0-9.317-.554-13.74 0C18.19 3.107 5.364-2.053 1.739 16.075 1.16 18.97.482 20.349.482 24.107Z"
    fill="#EAE3CD"
    fill-rule="evenodd"
  />
</svg>
