<svg width="24" height="23" xmlns="http://www.w3.org/2000/svg">
  <path
    d="M13.603 21.04c.834-.866 2.052-1.244 2.997-1.952 1.686-1.266 3.393-2.496 5.041-3.815.666-.533 1.517-.88 2.113-1.476.748-.748-.433-2.48-.591-3.27-.12-.597-.487-1.088-.635-1.68-.45-1.797-1.21-3.52-1.658-5.315-.22-.879-.483-2.503-1.136-3.156-.094-.094-.402-.296-.522-.136-.236.315-.222.8-.341 1.159-.278.832-.737 1.707-.908 2.565-.204 1.02-.815 1.99-1.068 2.998-.115.464-.144 1.326-.499 1.68-.213.214-3.04.376-3.452.318-1.266-.18-2.577-.114-3.86-.114-.375 0-1.1.216-1.408-.09-.247-.247-.74-1.667-.909-2.09-.68-1.698-1.302-3.515-1.657-5.29C5.031.98 4.647-.339 4.088.08c-.591.443-.562 1.783-.885 2.43-.366.73-.615 1.708-.772 2.498-.384 1.92-1.119 3.814-1.658 5.7-.141.495-.976 2.824-.727 3.156.462.614 1.236.875 1.817 1.34.877.702 1.831 1.402 2.747 2.089.3.224.787.332 1.045.59.327.327.911.551 1.317.795.99.594 2.042 1.314 2.839 2.111.486.486 1.217 1.407 1.907 1.545.55.11 1.54-.937 1.885-1.294Z"
    fill="#E24329"
    fill-rule="evenodd"
  />
</svg>
