<svg width="1000" height="380" xmlns="http://www.w3.org/2000/svg">
  <path
    d="M100.055 103.34a44.142 44.142 0 0 0-5.17.526c-18.725 3.125-41.843 14.974-56.478 27.181-10.69 8.918-17.447 21.67-24.337 33.164-3.615 6.032-6.842 13.075-8.206 19.898-1.073 5.376-3.473 10.574-4.397 16.116-.697 4.187-.438 8.473-.959 12.646-.286 2.286-1.004 4.973-.62 7.283 1.646 9.884 3.727 19.674 5.666 29.382 1.28 6.398 5.194 12.018 7.587 18.007 1.78 4.453 4.138 10.775 7.586 14.225 4.567 4.573 9.747 9.996 13.872 15.157 3.453 4.32 8.357 6.444 12.013 10.104 10.103 10.113 26.262 16.298 40.409 18.658 1.17.195 2.352.397 3.56.526 2.256 4.187 4.286 8.49 5.325 13.173 3.57 16.075 1.051 10.803 2.615 16.359 1.601 5.688.403 5.142 1.958 12.346 1.554 7.205 1.416 8.683 3.365 11.285 1.75 2.334 5.647-7.104 6.007-8.183 3.511-10.542 2.067-9.703 3.664-17.002 1.609-7.35 1.52-2.984 5.924-19.144.735-2.7 1.932-5.57 3.314-8.245 3.099-.353 6.388-2.09 9.412-2.696 8.996-1.801 21.428-6.323 29.663-10.444 13.479-6.747 25.648-15.726 35.052-27.491 4.55-5.695 6.404-13.499 10.712-19.248 5.022-6.7 9.557-17.928 10.745-26.25 1.767-12.384 5.056-26.116 2.508-38.867-3.781-18.925-13.215-42.95-27.124-56.874-4.414-4.417-6.922-10.148-12.014-14.225-11.404-9.133-24.766-16.592-38.52-22.099-4.723-1.89-9.83-2.977-14.83-3.812-3.934-.655-8.436.966-12.293 0-4.678-1.17-10.612-1.708-16.009-1.456Z"
    fill="#FF1053"
  />
  <path
    d="M15.997 267.392c.968-.023 1.646-.792 2.487-1.163 2.633-1.16 6.01-1.962 8.884-1.185 5.849 1.58 9.494 7.42 16.064 7.376 5.309-.035 9.35-4.169 14.628-2.692 4.467 1.25 7.89 5.069 12.752 5.427 1.733.128 3.26-.51 4.765-1.19l.752-.34c1.379-.616 2.766-1.166 4.304-1.09 3.776.184 7.385 3.133 11.144 2.863 2.303-.166 3.635-2.878 6.198-2.798 3.525.11 7.083 2.608 10.597 2.082 3.68-.551 5.485-5.409 9.398-5.434 5.054-.035 8.563 4.952 13.754 4.917 4.601-.03 6.479-5.484 11.643-3.9 1.247.382 2.376 1.527 3.532 2.644l.409.392c1.37 1.294 2.798 2.422 4.523 2.098 3.77-.708 5.462-5.385 9.294-6.138 6.214-1.22 10.495 5.152 16.53 4.719 2.987-.216 5.46-2.56 8.452-2.632 3.227-.078 4.312 1.415 7.18 2.472 2.293.845 3.456 0 4.55-.977l.273-.246.273-.246c.826-.733 1.712-1.394 3.106-1.325 1.132.055 2.21.443 3.29.837-.66 1.282-1.279 2.6-1.895 3.924l-.726 1.56c-1.46 3.118-2.987 6.195-5.089 8.824-9.413 11.765-21.593 20.744-35.085 27.49-8.243 4.122-20.687 8.644-29.691 10.445-3.028.605-6.32 2.343-9.422 2.696-1.383 2.675-2.58 5.546-3.316 8.245-2.6 9.534-3.637 11.924-4.38 13.79l-.074.188-.036.094-.108.278-.07.187c-.385 1.032-.73 2.182-1.262 4.607-.6 2.737-.771 4.33-.937 5.808l-.041.367-.043.367c-.263 2.201-.67 4.53-2.647 10.46-.034.101-.098.276-.19.507l-.1.25c-1.011 2.497-4.19 9.469-5.723 7.426-1.951-2.602-1.812-4.08-3.368-11.285-1.556-7.204-.357-6.658-1.96-12.346-.485-1.723-.577-2.404-.58-3.004v-.115c.001-.096.004-.19.007-.29l.005-.12.002-.062.004-.128c.038-1.25-.018-3.477-2.055-12.64-1.04-4.684-3.072-8.986-5.33-13.173-1.21-.13-2.392-.33-3.564-.526-14.16-2.36-30.335-8.545-40.448-18.658-3.66-3.66-8.568-5.783-12.025-10.104-4.129-5.161-9.314-10.584-13.885-15.157-3.45-3.45-5.812-9.772-7.593-14.225a53.344 53.344 0 0 0-1.32-2.998c1.24 1.47 2.518 2.888 4.163 2.847Z"
    fill="#F3E1E1"
  />
  <path
    d="M119.99 336.194c.09.045-2.213.1-2.913.216-1.879.313-3.458-.108-5.285-.108M101.693 345.146c.524.175-4.194.436-5.501 0M114.136 355.825c.653.653-6.405.282-7.443-.756"
    stroke="#000"
    stroke-width="2"
    stroke-linecap="round"
    stroke-linejoin="round"
    fill="none"
  />
  <path
    d="M163.178 218.576c5.832.615 12.904-4.766 11.809-11.04-.888-5.074-4.47-7.803-9.17-8.94-1.284-.31-2.75.21-3.963.392-10.438 1.575-8.642 18.536 1.324 19.588Z"
    fill="#000"
  />
  <path
    d="M164.312 202.38c-3.229-1.722-5.766 3.52-2.14 4.942 3.093 1.214 4.884-3.48 2.14-4.943Z"
    fill="#FFF"
  />
  <path
    d="M57.449 218.51c3.63.655 8.482-.478 10.297-3.9.572-1.078.774-2.235 1.187-3.363.594-1.62.653-4.208-.171-5.851-1.322-2.631-3.391-4.388-6.145-5.47-1.104-.435-2.473-1.01-3.71-1.025-11.45-.138-13.048 17.516-1.458 19.609Z"
    fill="#000"
  />
  <path
    d="M58.75 203.39c-3.229-1.72-5.765 3.52-2.139 4.943 3.092 1.214 4.884-3.48 2.14-4.943Z"
    fill="#FFF"
  />

  <path
    d="M39.035 227.693c-.432.17-5.05.152-5.907.454-1.198.423-2.569.887-3.621 1.706-1.95 1.516-2.501 5.703-.601 7.536 3.388 3.272 13.813 2.909 17.63.728 1.583-.906 4.357-3.176 4.196-5.383-.33-4.506-3.857-3.751-6.991-4.965-1.121-.433-3.526-.543-4.706-.076Z"
    fill="#000"
    opacity=".2"
  />
  <path
    d="M126.571 222.884c.346.222-.719 2.152-.941 2.64-1.113 2.434-3.804 4.318-6.422 4.68-5.853.814-12.233.339-16.89-4.005-.908-.846-1.28-2.203-2.07-3.182"
    stroke="#000"
    stroke-width="4"
    stroke-linecap="round"
    stroke-linejoin="round"
    fill="none"
  />
  <path
    d="M186.349 238.549c.45-.12 5.03.488 5.918.287 1.244-.28 2.664-.58 3.814-1.285 2.13-1.304 3.22-5.517 1.574-7.636-2.937-3.78-13.323-4.736-17.394-2.989-1.688.724-4.732 2.694-4.858 4.975-.258 4.652 3.337 4.33 6.29 5.97 1.055.587 3.426 1.006 4.656.678Z"
    fill="#000"
    opacity=".2"
  />

  <path
    d="M110.647 114.602s-6.68-7.503-7.54-9.374c-5.41-11.785-12.41-24.16-10.741-37.604.365-2.951 2.31-7.778 5.837-7.832 5.6-.085 7.544 7.266 7.595 7.105.322-1.022.33-7.794-.205-10.288-1.405-6.561.162-14.109 2.676-20.847 4.57-12.244 14.251-22.424 25.333-18.194 10.28 3.924 8.182 15.654 8.345 15.308.678-1.435 8.376-10.504 17.73-18.753C170.411 4.657 190.75-4.53 205.114 1.89c3.014 1.348 6.7 4.282 8.5 6.554 4.225 5.327 1.665 12.31-2.594 18.651-2.209 3.287-8.78 14.248-17.251 16.955-8.471 2.707-24.807 5.07-24.807 5.07s19.061-3.838 28.812 5.59c9.75 9.43 5.912 19.612 4.735 21.249-11.597 16.14-31.2 9.347-44.89 9.286-13.689-.062-27.146 2.29-33.652 10-6.507 7.708-13.32 19.358-13.32 19.358Z"
    fill="#79D258"
  />
  <path
    d="M110.132 113.329c.634-6.338-.686-12.152.916-18.708a62.892 62.892 0 0 1 1.7-5.742c3.642-10.45 9.686-19.163 15.683-26.896 2.896-3.735 5.782-7.242 8.38-10.606 8.938-11.567 27.344-26.703 37.584-28.771"
    stroke="#288C02"
    stroke-width="4"
    stroke-linecap="round"
    stroke-linejoin="round"
    fill="none"
  />
  <path
    d="M110.214 111.497c.336.897.074-2.975-.02-3.77-.332-2.832-.656-5.642-1.118-8.439-1.374-8.305-1.621-6.136-3.91-14.196M112.745 89.046c6.38-15.221-2.213-33.408 5.007-48.229"
    stroke="#288C02"
    stroke-width="4"
    stroke-linecap="round"
    stroke-linejoin="round"
    fill="none"
  />
  <path
    d="M110.025 111.562c.553-25.592 11.585-34.528 17.911-38.37 19.35-11.746 30.467-15.156 45.303-11.938"
    stroke="#288C02"
    stroke-width="4"
    stroke-linecap="round"
    stroke-linejoin="round"
    fill="none"
  />

  <path
    d="M291.057 281.75c2.14-11.928.776-23.804-.32-35.874-1.507-16.57-2.234-33.16-4.07-49.69-.776-6.986-1.844-14.145-3.213-20.989-.652-3.261-2.13-6.685-1.285-10.066.258-1.031 8.203-2.926 9.638-3.213 3.216-.643 6.313-2.333 9.639-2.999 4.221-.844 8.63-1.084 12.85-1.927 1.997-.4 6.534-1.873 8.567-.857 3.382 1.691 3.895 17.797 5.997 18.847.087.044 1.784-4.02 2.142-4.497 1.618-2.158 7.672-6.883 9.912-8.227 8.655-5.193 28.286-9.278 38.706-2.482.862.563-1.353 15.115-1.713 16.92-1.565 7.818-.776 16.089-2.357 23.988-.336 1.681-.432 6.215-1.713 7.496-1.256 1.257-7.686-1.031-9.21-1.285-5.141-.857-11.34.083-16.277 1.07-2.183.437-4.223 2.449-6.425 3-1.34.334-5.685 2.72-5.997 4.283-.567 2.833-.026 6.916.428 9.638 1.157 6.94 1.264 14.181 2.142 21.203.789 6.315 2.929 12.44 3.64 18.848.46 4.142 3.562 13.314.858 16.92-2.564 3.417-9.185 3.118-12.85 3.641-9.468 1.353-18.987 2.371-28.487 3.427-6.652.74-12.21 1.798-10.602-7.175ZM681.223 282.83c-.849-22.54 5.703-45.158 4.855-67.688-.3-7.945 1.45-15.953 1.152-23.898-.134-3.568-1.043-8.224.139-11.731.768-2.282 8.42-2.347 10.429-2.488 8.458-.592 16.636-1.384 25.082-1.702 3.032-.114 8.384-2.075 9.248 2.105 2.002 9.689 3.636 27.513 3.827 40.832.177 12.364-.986 24.684-1.194 37.008-.138 8.127-3.069 22.141-2.98 27.489.083 4.879-8.948 3.716-14.736 4.12-8.465.593-17.106.772-25.587 1.365-2.238.156-8.051.863-9.677-1.241-.671-.869-.522-3.2-.558-4.17ZM758.83 287.716c-7.702-4.52-11.18-7.155-11.194-7.407-.155-3.075 3.543-7.595 4.825-10.343 3.611-7.744 7.577-15.493 12.15-22.501 1.394-2.135 2.583-6.634 5.275-7.614 1.13-.411 6.707 4.744 8.159 5.528 8.712 4.705 17.944 9.116 27.283 12.129 3.599 1.161 8.958.785 10.523-3.377 1.007-2.678-2.774-5.713-4.334-7.191-5.218-4.94-13-7.465-19.19-11.006-17.79-10.174-41.357-29.753-34.587-53.313 6.458-22.473 38.574-31.12 50.948-30.652 3.871.147 12.814 1.797 18.384 3.074 9.195 2.107 21.308 4.087 29.054 10.038 3.384 2.6-.392 5.106-2.256 7.962-3.715 5.69-4.297 6.983-6.71 10.125-2.074 2.7-3.584 6.266-5.45 9.124-.922 1.414-2.497 6.188-4.556 6.358-2.57.214-5.02-3.713-7.091-4.831-2.111-1.14-3.561-2.965-5.647-4.093-6.64-3.585-20.233-7.449-23.732 1.857-1.15 3.058 2.123 6.14 3.87 7.902 2.956 2.98 6.065 3.235 9.545 5.114 4.091 2.21 8.374 3.64 12.288 6.196 4.349 2.838 9.644 4.491 13.834 7.711 15.886 12.205 22.827 23.03 18.117 43.578-1.385 6.04-2.892 12.35-6.572 17.216-5.187 6.859-9.309 10.762-14.273 12.696-21.218 8.263-32.918 6.916-54.052 4.482-7.107-.819-16.91-4.242-24.612-8.762ZM919.995 289.61c1.032-5.54 1.343-13.887 1.396-19.755.083-9.947 2.078-20.136 1.653-30.06-.121-2.897-.561-7.859.304-10.682.614-2.02 2.64-3.62 4.119-4.828 1.874-1.535 4.028-3.05 6.334-4.077 6.91-3.084 16.5-.831 18.654 6.643 2.7 9.336.06 18.255.296 27.766.159 6.398-.364 13.24-1.002 19.605-.387 3.937-2.571 8.136-2.17 12.217.244 2.527 8.588 2.387 10.454 2.573 8.77.874 13.01.416 23.494.037 2.283-.083 8.905.995 10.263-1.796 1.077-2.203 1.085-19.629 1.897-27.78.743-7.442 3.026-15.143 3.026-22.654 0-11.148-.63-21.326-3.095-32.255-2.632-11.617-7.654-21.274-19.518-24.901-10.97-3.355-25.519-1.49-35.722 3.325-2.647 1.252-14.474 8.696-16.34 8.509-.584-.058-.44-5.566-.455-7.1-.06-5.327-.834-10.892-.971-16.223-.152-5.92-1.267-11.473-1.768-17.391-.637-7.538-.265-13.165-1.637-20.217-.84-4.323-.857-13.565-2.415-15.31-2.05-2.3-12.249 1.223-15.26.731-3.012-.491-23.108 1.523-26.65 2.508-2.83.788-1.645 11.81-1.549 13.619.808 15.154 2.382 30.276 2.551 45.4.286 25.256-.854 50.696-1.075 76.028-.062 7.079-1.511 15.153-1.831 22.2-.164 3.591-.057 7.992-.205 11.647-.131 3.24 6.95 2.318 10.323 1.986 8.988-.884 17.704 2.504 26.783 1.905 3.718-.245 9.348 2.444 10.116-1.67ZM379.096 247.321c-.095 2.461.142 4.905.877 7.112 1.84 5.52 3.195 10.502 6.733 15.22 1.637 2.183 9.736 8.257 12.113 9.434 20.595 10.201 25.223 9.233 41.391 8.463 8.928-.425 21.888-.655 29.822-4.622 3.123-1.562 5.5-5.019 7.515-7.705.24-.32 2.594-4.287 2.892-3.84.605.908 2.067 3.822 2.987 4.741 8.394 8.394 25.072 12.777 36.649 12.777 5.815 0 15.553-2.264 16.95-9.245.918-4.59-6.976-17.227-8.866-21.951-.905-2.262-1.255-6.044-3.082-7.871-1.867-1.868-6.923.714-9.032.948-4.91.546-6.269-1.54-8.866-5.001-3.738-4.984-.674-15.667-1.327-21.55-2.705-24.338-3.646-49.893-30.036-60.45-3.904-1.561-7.578-3.679-11.544-5.001-15.258-5.086-36.939-4.204-51.774 1.73-3.62 1.448-8.186 2.436-11.355 4.813-3.215 2.41-17.176 8.49-18.088 12.137-1.28 5.12 13.259 12.097 16.737 15.575 2.257 2.258 11.288 9.436 14.247 10.027 4.432.887 10.391-5.314 14.034-7.135 11.736-5.868 36.957-2.826 36.957 14.057 0 .545-2.655-1.054-3.082-1.16-2.325-.582-4.37-1.982-6.922-2.3-7.036-.88-14.82-1.206-21.928-.19-12.771 1.825-27.037 3.704-37.55 12.114-3.895 3.116-5.952 7.682-9.435 11.165-2.707 2.707-4.99 6.76-5.95 10.597-.548 2.193-.972 4.65-1.067 7.111Zm50.92-2.133c.06-.664.225-1.344.522-2.039 3.671-8.587 21.455-6.953 28.945-6.4 1.688.124 8.595.3 9.624 1.991.787 1.294.495 6.543.356 7.846-.507 4.737-24.16 8.324-30.249 7.54-4.59-.593-9.611-4.292-9.198-8.938ZM536.527 231.984c.19 5.11.788 10.251 1.66 15.36 1.086 6.372 3.122 13.834 7.182 18.895 8.223 10.25 18.785 17.546 31.482 21.121 10.038 2.828 21.202 1.049 30.509-2.394 4.414-1.632 9.957-5.547 13.133-8.937.158-.169.318-.723.735-.569 1.48.548-.02 9.29.57 10.882.483 1.307 7.67.4 8.984.544 7.418.815 14.801.952 22.117 1.755 1.899.209 7.49.966 9.079-.309 2.26-1.812.797-11.19.996-17.02.199-5.83.524-15.884.45-18.159-.261-8.045 1.391-16.088 1.541-24.133.078-4.15-.167-8.447.285-12.564 1.854-16.891 2.47-34.77 1.92-51.678-.258-7.93 1.76-16.084 1.066-23.943-.402-4.564 2.842-22.51.57-25.342-1.18-1.47-6.452-1.115-8.203-1.565-7.858-2.017-22.976-3.045-26.005-2.63-3.587.489-3.675 11.34-4.101 15.218-1.541 14.035-3.074 28.023-4.622 42.125-.154 1.405-1.311 13.973-1.802 14.367-.209.166-1.401-1.938-1.517-2.134-.932-1.575-2.328-3.843-4.126-4.67-4.958-2.28-10.6-2.75-15.906-3.936-15.894-3.554-44.053 2.474-54.145 16.358-9.444 12.994-12.424 28.027-11.852 43.358Zm42.575-7.254c1.68-14.812 15.065-16.2 26.575-13.015 2.236.619 14.849 3.878 15.433 6.543.405 1.851.227 5.076.38 7.99.095 1.865.097 7.541-.476 8.675-1.03 2.044-5.217 3.453-7.68 4.505-10.016 4.273-27.345 5.654-32.667-6.354 0 0-2.125-3.396-1.565-8.344Z"
    fill="#FF1053"
  />
  <path
    d="M713.482 171.73c-5.13 2.474-6.605-7.372-7.457-9.213-5.364-11.592-12.296-23.762-10.693-37.01.352-2.91 2.253-7.67 5.728-7.733 5.516-.1 7.454 7.136 7.503 6.976.313-1.008.3-7.679-.233-10.134-1.403-6.46.117-13.9 2.575-20.545 4.464-12.075 13.97-22.133 24.9-17.998 10.139 3.835 8.106 15.397 8.267 15.055.663-1.416 8.22-10.373 17.41-18.526 10.546-9.357 30.555-18.47 44.724-12.188 2.974 1.318 6.613 4.199 8.393 6.43 4.178 5.236 1.677 12.123-2.5 18.382-2.165 3.243-8.607 14.062-16.943 16.754-8.337 2.691-24.423 5.068-24.423 5.068s18.767-3.838 28.4 5.422c9.633 9.258 5.883 19.301 4.729 20.918-11.377 15.933-30.71 9.3-44.195 9.28-13.484-.019-26.735 2.338-33.121 9.952-6.387 7.614-7.934 16.636-13.064 19.11Z"
    fill="#79D258"
  />
</svg>
