<svg width="133" height="45" xmlns="http://www.w3.org/2000/svg">
  <path
    d="M2.589 41.243c.391-2.184.142-4.359-.059-6.569-.276-3.033-.409-6.07-.745-9.097a45.281 45.281 0 0 0-.588-3.843c-.12-.597-.39-1.224-.236-1.843.048-.189 1.502-.536 1.765-.588.589-.118 1.156-.428 1.765-.55.773-.154 1.58-.198 2.353-.352.365-.073 1.196-.343 1.568-.157.62.31.713 3.258 1.098 3.45.016.009.327-.735.392-.823.297-.395 1.405-1.26 1.815-1.506 1.585-.95 5.179-1.699 7.087-.455.157.104-.248 2.768-.314 3.098-.286 1.432-.142 2.946-.431 4.392-.062.308-.08 1.138-.314 1.373-.23.23-1.407-.19-1.686-.236-.942-.156-2.077.016-2.98.197-.4.08-.774.448-1.177.549-.245.06-1.04.497-1.098.784-.104.518-.005 1.266.078 1.764.212 1.271.232 2.597.393 3.883.144 1.156.536 2.277.666 3.45.084.759.652 2.438.157 3.098-.47.626-1.682.571-2.353.667-1.733.247-3.476.434-5.215.627-1.218.136-2.236.33-1.941-1.313ZM74.024 41.44c-.156-4.126 1.044-8.268.889-12.393-.055-1.454.265-2.92.21-4.375-.024-.653-.19-1.506.026-2.148.14-.418 1.541-.43 1.91-.455 1.548-.109 3.045-.254 4.592-.312.555-.02 1.535-.38 1.693.385.366 1.774.665 5.038.7 7.476.033 2.264-.18 4.52-.218 6.776-.025 1.488-.562 4.054-.546 5.033.015.893-1.638.68-2.698.754-1.55.109-3.132.142-4.684.25-.41.029-1.474.158-1.772-.227-.123-.16-.096-.586-.102-.764ZM88.233 42.335c-1.41-.828-2.047-1.31-2.05-1.356-.028-.563.649-1.39.884-1.894.66-1.418 1.387-2.836 2.224-4.12.255-.39.473-1.214.966-1.394.207-.075 1.228.869 1.494 1.013 1.595.86 3.285 1.669 4.995 2.22.659.213 1.64.144 1.927-.618.184-.49-.508-1.046-.794-1.317-.955-.904-2.38-1.366-3.514-2.015-3.256-1.863-7.571-5.447-6.332-9.76 1.182-4.115 7.063-5.699 9.328-5.613.709.027 2.346.33 3.366.563 1.684.386 3.901.748 5.32 1.838.619.476-.072.935-.413 1.457-.68 1.042-.787 1.28-1.23 1.854-.379.495-.655 1.147-.997 1.67-.169.26-.457 1.134-.834 1.165-.47.039-.92-.68-1.298-.885-.387-.209-.652-.543-1.034-.749-1.216-.656-3.705-1.364-4.345.34-.21.56.388 1.124.708 1.447.541.545 1.11.592 1.748.936.749.405 1.533.667 2.25 1.134.796.52 1.765.823 2.532 1.412 2.91 2.235 4.18 4.217 3.317 7.979-.253 1.106-.529 2.261-1.203 3.152-.95 1.256-1.704 1.97-2.613 2.325-3.885 1.512-6.027 1.266-9.896.82-1.301-.15-3.096-.777-4.506-1.604ZM117.74 42.682c.19-1.015.246-2.543.256-3.617.015-1.821.38-3.687.303-5.504-.023-.53-.103-1.439.055-1.956.113-.37.483-.662.754-.884.343-.28.738-.558 1.16-.746 1.265-.565 3.02-.152 3.415 1.216.495 1.71.011 3.342.054 5.084.03 1.171-.066 2.424-.183 3.59-.07.72-.47 1.489-.397 2.236.044.463 1.572.437 1.914.471 1.605.16 2.382.076 4.301.007.418-.015 1.63.182 1.88-.329.197-.403.198-3.594.347-5.086.136-1.363.554-2.773.554-4.148 0-2.041-.116-3.904-.567-5.905-.482-2.127-1.401-3.895-3.574-4.56-2.008-.614-4.672-.272-6.54.61-.485.228-2.65 1.591-2.992 1.557-.106-.01-.08-1.019-.083-1.3-.011-.975-.153-1.994-.178-2.97-.027-1.084-.232-2.1-.323-3.184-.117-1.38-.049-2.41-.3-3.701-.154-.792-.157-2.484-.442-2.804-.376-.42-2.243.224-2.794.134-.552-.09-4.23.279-4.88.46-.518.144-.3 2.162-.283 2.493.148 2.774.436 5.543.467 8.312.052 4.624-.156 9.282-.197 13.92-.011 1.296-.277 2.774-.335 4.064-.03.658-.01 1.464-.038 2.133-.024.593 1.273.424 1.89.364 1.646-.162 3.242.458 4.904.348.68-.044 1.712.448 1.852-.305ZM18.708 34.94c-.018.45.026.897.16 1.301.337 1.01.585 1.923 1.233 2.787.3.4 1.783 1.511 2.218 1.727 3.77 1.868 4.618 1.69 7.578 1.55 1.635-.078 4.007-.12 5.46-.847.572-.286 1.007-.919 1.376-1.41.044-.059.475-.785.53-.704.11.167.378.7.546.869 1.537 1.536 4.59 2.339 6.71 2.339 1.065 0 2.848-.415 3.104-1.693.168-.84-1.278-3.154-1.624-4.019-.165-.414-.23-1.106-.564-1.44-.342-.343-1.267.13-1.653.173-.9.1-1.148-.282-1.624-.916-.684-.913-.123-2.868-.243-3.945-.495-4.457-.667-9.135-5.499-11.068-.715-.286-1.387-.674-2.114-.916-2.793-.931-6.763-.77-9.479.317-.663.265-1.499.446-2.079.881-.588.441-3.145 1.555-3.311 2.222-.235.938 2.427 2.215 3.064 2.852.413.413 2.067 1.727 2.608 1.836.812.162 1.903-.973 2.57-1.307 2.149-1.074 6.766-.517 6.766 2.574 0 .1-.486-.193-.564-.213-.426-.106-.8-.362-1.267-.42-1.289-.162-2.714-.221-4.015-.035-2.338.334-4.95.678-6.875 2.218-.713.57-1.09 1.406-1.728 2.044a4.413 4.413 0 0 0-1.089 1.94c-.1.402-.178.852-.195 1.302Zm9.323-.391c.01-.122.04-.247.095-.374.672-1.572 3.928-1.273 5.3-1.172.309.023 1.573.055 1.762.365.144.237.09 1.198.065 1.436-.093.868-4.424 1.524-5.538 1.38-.84-.108-1.76-.785-1.684-1.635ZM47.532 32.13c.034.937.144 1.878.303 2.813.2 1.167.572 2.533 1.315 3.46 1.506 1.876 3.44 3.212 5.764 3.867 1.838.517 3.882.192 5.586-.439.808-.298 1.823-1.015 2.405-1.636.029-.03.058-.132.134-.104.271.1-.003 1.7.105 1.992.088.24 1.404.074 1.645.1 1.358.15 2.71.174 4.049.321.348.038 1.371.177 1.662-.056.414-.332.146-2.05.183-3.117.036-1.067.096-2.908.082-3.324-.048-1.473.255-2.946.282-4.419.014-.76-.03-1.546.052-2.3.34-3.093.453-6.366.352-9.462-.047-1.452.322-2.945.195-4.383-.074-.836.52-4.122.104-4.64-.216-.27-1.18-.204-1.501-.287-1.44-.369-4.207-.557-4.762-.481-.657.09-.673 2.076-.75 2.786l-.847 7.713c-.028.257-.24 2.558-.33 2.63-.038.03-.256-.355-.278-.39-.17-.29-.426-.704-.755-.856-.908-.417-1.94-.503-2.912-.72-2.91-.651-8.066.453-9.913 2.995-1.73 2.379-2.275 5.131-2.17 7.938Zm7.795-1.327c.307-2.712 2.758-2.966 4.865-2.383.41.113 2.719.71 2.826 1.198.074.339.041.93.07 1.463.017.341.017 1.38-.088 1.588-.189.374-.955.632-1.406.825-1.834.782-5.007 1.035-5.98-1.163 0 0-.39-.622-.287-1.528Z"
    fill="#FF1053"
  />
  <path
    d="M79.93 21.1c-.94.452-1.21-1.35-1.365-1.688-.982-2.122-2.252-4.35-1.958-6.776.064-.532.412-1.404 1.049-1.416 1.01-.018 1.364 1.307 1.373 1.278.058-.185.055-1.406-.042-1.856-.257-1.183.021-2.545.471-3.761.817-2.211 2.558-4.053 4.56-3.296 1.855.703 1.483 2.82 1.513 2.757.121-.26 1.505-1.9 3.187-3.392C90.65 1.237 94.313-.432 96.907.718c.544.242 1.21.77 1.536 1.178.765.958.307 2.22-.457 3.365-.397.594-1.576 2.575-3.102 3.068-1.527.492-4.472.928-4.472.928s3.436-.703 5.2.992c1.763 1.695 1.077 3.534.866 3.83-2.084 2.917-5.623 1.703-8.092 1.7-2.469-.004-4.895.427-6.064 1.821-1.17 1.394-1.453 3.046-2.392 3.5Z"
    fill="#79D258"
  />
</svg>
