<svg width="197" height="80" xmlns="http://www.w3.org/2000/svg">
  <path
    d="M40.819.534c-7.504 0-15.462-1.263-22.785.203-3.01.602-6.253 2.521-8.872 3.83-2.256 1.129-3.93 4.537-5.645 6.252-1.342 1.34-.88 3.992-1.21 5.645C1.212 21.937-.979 27.72.492 33.604c.61 2.433-.205 5.227.403 7.661C4.778 56.801-1.798 74.44 19.848 78.77c5.12 1.025 10.589-.452 15.73.404 6.018 1.003 14.37 1.198 20.364 0 8.324-1.664 17.588.598 26.011-.604 7.25-1.037 15.211 1.434 22.382 0 5.247-1.05 11.17.686 16.333-.606 4.232-1.058 8.993.317 13.309-.404 5.25-.875 11.182-.805 16.533-.805 11.448 0 23.212.9 34.077-1.816 10.378-2.593 9.295-11.566 11.292-19.557 1.175-4.702 1.415-10.669.604-15.527-2.01-12.073 1.908-25.337-9.476-33.876C175.171-2.898 156.268.737 142.242.737 108.538.737 74.405.534 40.82.534Z"
    fill="#222244"
  />
</svg>
