<svg width="22" height="22" xmlns="http://www.w3.org/2000/svg">
  <path
    d="M10.047 5.782c-6.874.89-6.281 11.76.634 11.227 2.04-.156 4.775-1.375 5.668-3.338 1.956-4.304-2-8.445-6.302-7.889Z"
    fill="#F6C046"
  />
  <path
    d="M4.36 5.671c-.686-.352-1.236-.868-1.893-1.205M3.187 11.082c-.746 0-1.445-.035-2.187-.035M3.507 15.533c-.596.164-1.324 1.205-1.84 1.205M7.353 18.76c.192 0-.26.433-.341.56-.257.4-.568.795-.752 1.226M12.86 20.2a8.843 8.843 0 0 0-.683-1.307M18.04 18.12c.109.109-.273-.159-.346-.213-.439-.329-.611-.786-1.12-1.04M21 12.773c-.736-.315-1.711-.192-2.373-.615M18.36 6.493c.05.099.755-.435.853-.533.388-.388 1.217-.636 1.707-.8M8.555 2.84c0-.509-.77-1.39-1.06-1.84M14.12 3.613c.374-.747.88-1.387 1.253-2.133"
    stroke="#F6C046"
    stroke-width="2"
    stroke-linecap="round"
    stroke-linejoin="round"
  />
</svg>
