<svg width="60" height="23" xmlns="http://www.w3.org/2000/svg">
  <path
    d="M15.574 20.818c4.902-.301 10.157-.337 15.002.268 3.043.38 6.294-.357 9.345-.357 5.725 0 11.415.264 16.133-3.274 2.862-2.147 3.293-8.533 1.071-11.31-1.317-1.648-3.499-2.96-5.476-3.751-1.592-.636-3.275-.436-4.941-.714-3.061-.51-6.986-.691-10.06-.18-1.739.29-3.62-.289-5.359 0-1.114.187-2.346-.16-3.452.061-1.976.395-4.395.238-6.43.238-1.781 0-4.119-.31-5.833.12-1.866.466-4.057-.32-5.952.058C4.735 2.955.656 6.545 1.407 11.8c.156 1.093.246 2.354.833 3.333.903 1.505 2.365 2.782 3.572 3.988 2.388 2.39 6.789 1.88 9.762 1.697Z"
    stroke="#222244"
    stroke-width="2"
    fill="none"
    fill-rule="evenodd"
    stroke-linecap="round"
    stroke-linejoin="round"
  />
</svg>
