<svg width="58" height="20" xmlns="http://www.w3.org/2000/svg">
  <path
    d="M19.384 19.7c4.978 0 10.344-.888 15.304-.178 5.625.802 12.223 1.042 17.499-1.069 1.464-.585 3.306-1.857 4.271-3.144 2.841-3.786 1.298-11.344-3.263-13.168-1.1-.44-2.466-.52-3.617-.712-1.602-.267-3.204-.483-4.805-.712-.905-.129-1.839.06-2.73-.118-1.503-.301-3.166.194-4.685-.06-2.529-.42-5.246.184-7.77-.237-2.194-.365-5.255-.182-7.416.178-5.331.889-13.515-1.609-18.033 1.78-1.061.796-3.036 2.178-3.381 3.558-1.272 5.089.41 9.815 5.34 12.28 4.304 2.152 8.7 1.601 13.286 1.601Z"
    fill="#ff1053"
  />
</svg>
