<svg width="15" height="21" xmlns="http://www.w3.org/2000/svg">
  <path
    d="M5.641 9.221c-.773.387-2.82-1.52-3.331-2.116-.128-.15-.71-.689-.54-.945.098-.147.3-.15.45-.18.85-.17 1.081.09 1.8.45.1.05.69.463.766.36.018-.023.004-.42 0-.45-.047-.33-.351-.703-.495-.99-.577-1.154-1.17-2.048-1.17-3.377 0-.327-.012-1.348.45-1.44.657-.132 1.142.492 1.44.99.654 1.09 1.06 2.422 1.306 3.647.03.151.286 1.44.405 1.44.083 0 .122-.58.135-.63.07-.278.464-1.798.9-1.71.548.109.36 1.323.36 1.71v.495c0 .03-.02.112 0 .09.154-.154.239-.463.406-.63.364-.364 2.15-1.17 2.52-.675.344.457-.009 1.36-.36 1.71-.547.548-1.28.958-1.935 1.35-.445.268-.61.795-.99 1.081-.282.211-.709.144-1.036.226"
    fill="#79D258"
  />
  <path
    d="M9.443 19.155c-.227.363.223-.563.487-.78.503-.417 1.067-.879 1.632-1.225 1.03-.63 2.44-1.73 2.807-2.95.144-.48.192-.957.32-1.44.107-.402.166-.823.07-1.234-.547-2.37-3.239-3.849-5.485-3.69-1.133.08-2.203.707-3.336.787-.93.066-2.45.13-3.274.609-.633.367-1.143.838-1.385 1.523-.191.542-.489.928-.47 1.563.046 1.541 1.342 2.963 2.429 3.952.843.766 2.139 1.088 3.05 1.76.329.242.815.478 1.073.79.329.397.876 1.463 1.401 1.695l.68-1.36Z"
    fill="#ff1053"
  />
</svg>
