<svg width="25" height="24" xmlns="http://www.w3.org/2000/svg">
  <path
    d="M18.622 22.35c1.035-.499 2.079-1.43 2.717-2.276 1.758-2.335 3.556-5.682 3.194-8.72-.166-1.391-.838-2.937-1.515-4.125-.635-1.117-1.199-2.8-2.149-3.72-3.436-3.331-8.981-4.2-13.351-2.278-5.456 2.398-8.74 10.848-5.887 16.145.354.658.438 1.455.904 2.058 1.352 1.744 4.264 4.502 6.748 4.207.542-.065.434-1.394.063-1.643-.502-.337-1.398-.319-1.971-.542-.466-.181-3.137-3.384-3.164-3.752-.022-.317.4-.716.694-.494 1.327 1 3.43 4.543 4.642 1.427.047-.118.254-.608.254-.61.13-.463-3.568-1.823-3.985-2.255-.843-.87-1.423-3.33-1.03-4.5.341-1.017 1.264-1.518 1.218-2.71-.034-.88-.74-2.615.18-3.326.852-.66 2.331.895 3.007 1.159.45.176 1.25-.437 1.758-.456 1.073-.042 2.23.234 3.303.37.36.047.912.213 1.254.063.794-.35 2.512-2.35 3.413-.877.613 1.005-.308 2.236.124 3.22.148.335.544.484.727.772 1.023 1.602.976 3.875-.195 5.363-.705.895-1.865 1.658-2.89 2.11-.206.09-1.682.293-1.661.467.054.458.599.594.69 1.06.17.857.35 1.71.497 2.586.086.519-.404 2.115.08 2.437.187.127 1.516-.766 2.331-1.16Z"
    fill="#000000"
    fill-rule="evenodd"
  />
</svg>
